<?xml version="1.0" encoding="UTF-8" standalone="no"?>
<!-- Created with Inkscape (http://www.inkscape.org/) -->

<svg
   xmlns:dc="http://purl.org/dc/elements/1.1/"
   xmlns:cc="http://creativecommons.org/ns#"
   xmlns:rdf="http://www.w3.org/1999/02/22-rdf-syntax-ns#"
   xmlns:svg="http://www.w3.org/2000/svg"
   xmlns="http://www.w3.org/2000/svg"
   xmlns:xlink="http://www.w3.org/1999/xlink"
   xmlns:sodipodi="http://sodipodi.sourceforge.net/DTD/sodipodi-0.dtd"
   xmlns:inkscape="http://www.inkscape.org/namespaces/inkscape"
   width="400"
   height="400"
   id="svg2"
   version="1.1"
   inkscape:version="0.48.4 r9939"
   sodipodi:docname="ml-bourne.svg"
   inkscape:export-filename="/home/thomas/ml-bourne.png"
   inkscape:export-xdpi="90"
   inkscape:export-ydpi="90">
  <defs
     id="defs4">
    <clipPath
       clipPathUnits="userSpaceOnUse"
       id="clipPath3878">
      <rect
         style="fill:#ff0000;stroke:#ff0000;stroke-width:0;stroke-miterlimit:4;stroke-dasharray:none"
         id="rect3880"
         width="120.62585"
         height="69.170067"
         x="-1.0952438"
         y="219.99998" />
    </clipPath>
    <clipPath
       clipPathUnits="userSpaceOnUse"
       id="clipPath3878-3">
      <rect
         style="fill:#ff0000;stroke:#ff0000;stroke-width:0;stroke-miterlimit:4;stroke-dasharray:none"
         id="rect3880-4"
         width="120.62585"
         height="69.170067"
         x="-1.0952438"
         y="219.99998" />
    </clipPath>
    <clipPath
       clipPathUnits="userSpaceOnUse"
       id="clipPath3878-5">
      <rect
         style="fill:#ff0000;stroke:#ff0000;stroke-width:0;stroke-miterlimit:4;stroke-dasharray:none"
         id="rect3880-8"
         width="120.62585"
         height="69.170067"
         x="-1.0952438"
         y="219.99998" />
    </clipPath>
    <clipPath
       clipPathUnits="userSpaceOnUse"
       id="clipPath3878-4">
      <rect
         style="fill:#ff0000;stroke:#ff0000;stroke-width:0;stroke-miterlimit:4;stroke-dasharray:none"
         id="rect3880-2"
         width="120.62585"
         height="69.170067"
         x="-1.0952438"
         y="219.99998" />
    </clipPath>
    <clipPath
       clipPathUnits="userSpaceOnUse"
       id="clipPath3878-9">
      <rect
         style="fill:#ff0000;stroke:#ff0000;stroke-width:0;stroke-miterlimit:4;stroke-dasharray:none"
         id="rect3880-27"
         width="120.62585"
         height="69.170067"
         x="-1.0952438"
         y="219.99998" />
    </clipPath>
    <clipPath
       clipPathUnits="userSpaceOnUse"
       id="clipPath3878-42">
      <rect
         style="fill:#ff0000;stroke:#ff0000;stroke-width:0;stroke-miterlimit:4;stroke-dasharray:none"
         id="rect3880-22"
         width="120.62585"
         height="69.170067"
         x="-1.0952438"
         y="219.99998" />
    </clipPath>
    <clipPath
       clipPathUnits="userSpaceOnUse"
       id="clipPath3878-0">
      <rect
         style="fill:#ff0000;stroke:#ff0000;stroke-width:0;stroke-miterlimit:4;stroke-dasharray:none"
         id="rect3880-3"
         width="120.62585"
         height="69.170067"
         x="-1.0952438"
         y="219.99998" />
    </clipPath>
    <polygon
       points="0 -9 2.3511 -3.2361 8.5595 -2.7812 3.8042 1.2361 5.2901 7.2812 0 4 -5.2901 7.2812 -3.8042 1.2361 -8.5595 -2.7812 -2.3511 -3.2361"
       id="Star5" />
    <polygon
       points="0 -9 1.7355 -3.6039 7.0365 -5.6114 3.8997 -0.89008 8.7744 2.0027 3.1273 2.494 3.905 8.1087 0 4 -3.905 8.1087 -3.1273 2.494 -8.7744 2.0027 -3.8997 -0.89008 -7.0365 -5.6114 -1.7355 -3.6039"
       id="Star7" />
  </defs>
  <sodipodi:namedview
     id="base"
     pagecolor="#ffffff"
     bordercolor="#666666"
     borderopacity="1.0"
     inkscape:pageopacity="0.0"
     inkscape:pageshadow="2"
     inkscape:zoom="1.28"
     inkscape:cx="136.74868"
     inkscape:cy="192.38746"
     inkscape:document-units="px"
     inkscape:current-layer="layer1"
     showgrid="false"
     inkscape:window-width="1329"
     inkscape:window-height="744"
     inkscape:window-x="37"
     inkscape:window-y="24"
     inkscape:window-maximized="1"
     showguides="true"
     inkscape:guide-bbox="true" />
  <metadata
     id="metadata7">
    <rdf:RDF>
      <cc:Work
         rdf:about="">
        <dc:format>image/svg+xml</dc:format>
        <dc:type
           rdf:resource="http://purl.org/dc/dcmitype/StillImage" />
        <dc:title></dc:title>
      </cc:Work>
    </rdf:RDF>
  </metadata>
  <g
     inkscape:label="Layer 1"
     inkscape:groupmode="layer"
     id="layer1"
     transform="translate(0,-652.36214)">
    <g
       id="g4107"
       transform="translate(528.5005,7073.0496)"
       style="fill:#000000">
      <use
         transform="matrix(1.718179,0,0,1.718179,-276.85298,-6227.5051)"
         xlink:href="#Star7"
         style="fill:#000000"
         id="Commonwealth_Star-1"
         x="0"
         y="0"
         width="1"
         height="1" />
      <use
         transform="matrix(0.81818041,0,0,0.81818041,-179.21678,-6216.187)"
         xlink:href="#Star7"
         style="fill:#000000"
         id="Star_Alpha_Crucis"
         x="0"
         y="0"
         width="1"
         height="1" />
      <use
         transform="matrix(0.81818041,0,0,0.81818041,-204.98946,-6256.9937)"
         xlink:href="#Star7"
         style="fill:#000000"
         id="Star_Beta_Crucis"
         x="0"
         y="0"
         width="1"
         height="1" />
      <use
         transform="matrix(0.81818041,0,0,0.81818041,-179.21678,-6284.9141)"
         xlink:href="#Star7"
         style="fill:#000000"
         id="Star_Gamma_Crucis"
         x="0"
         y="0"
         width="1"
         height="1" />
      <use
         transform="matrix(0.81818041,0,0,0.81818041,-156.30773,-6263.8664)"
         xlink:href="#Star7"
         style="fill:#000000"
         id="Star_Delta_Crucis"
         x="0"
         y="0"
         width="1"
         height="1" />
      <use
         transform="matrix(0.47727193,0,0,0.47727193,-168.9077,-6246.2551)"
         xlink:href="#Star5"
         style="fill:#000000"
         id="Star_Epsilon_Crucis"
         x="0"
         y="0"
         width="1"
         height="1" />
    </g>
    <path
       style="fill:#008000;stroke:#008000;stroke-width:3.19544911;stroke-linecap:butt;stroke-linejoin:miter;stroke-miterlimit:4;stroke-opacity:1;stroke-dasharray:none"
       d="M 5.45487,920.7644 393.25942,823.95987 z"
       id="path3974"
       inkscape:connector-curvature="0" />
    <path
       sodipodi:type="arc"
       style="fill:none;stroke:#ff0000;stroke-width:3.38265395;stroke-miterlimit:4;stroke-dasharray:none"
       id="path3866"
       sodipodi:cx="56.785713"
       sodipodi:cy="220"
       sodipodi:rx="51.07143"
       sodipodi:ry="58.57143"
       d="M 107.85714,220 A 51.07143,58.57143 0 1 1 5.714283,220 51.07143,58.57143 0 1 1 107.85714,220 z"
       transform="matrix(0.94976809,0,0,0.82815148,0.07275634,670.1628)"
       clip-path="url(#clipPath3878)" />
    <path
       sodipodi:type="arc"
       style="fill:none;stroke:#ff0000;stroke-width:3.38265395;stroke-miterlimit:4;stroke-dasharray:none"
       id="path3866-6"
       sodipodi:cx="56.785713"
       sodipodi:cy="220"
       sodipodi:rx="51.07143"
       sodipodi:ry="58.57143"
       d="M 107.85714,220 A 51.07143,58.57143 0 1 1 5.714283,220 51.07143,58.57143 0 1 1 107.85714,220 z"
       transform="matrix(-0.94976809,0,0,-0.82815148,204.93927,1034.5555)"
       clip-path="url(#clipPath3878-9)" />
    <path
       sodipodi:type="arc"
       style="fill:none;stroke:#ff0000;stroke-width:3.38265395;stroke-miterlimit:4;stroke-dasharray:none"
       id="path3866-1"
       sodipodi:cx="56.785713"
       sodipodi:cy="220"
       sodipodi:rx="51.07143"
       sodipodi:ry="58.57143"
       d="M 107.85714,220 A 51.07143,58.57143 0 1 1 5.714283,220 51.07143,58.57143 0 1 1 107.85714,220 z"
       transform="matrix(-0.94976809,0,0,-0.82815148,398.93927,1034.5555)"
       clip-path="url(#clipPath3878-42)" />
    <path
       sodipodi:type="arc"
       style="fill:none;stroke:#ff0000;stroke-width:3.38265395;stroke-miterlimit:4;stroke-dasharray:none"
       id="path3866-9"
       sodipodi:cx="56.785713"
       sodipodi:cy="220"
       sodipodi:rx="51.07143"
       sodipodi:ry="58.57143"
       d="M 107.85714,220 A 51.07143,58.57143 0 1 1 5.714283,220 51.07143,58.57143 0 1 1 107.85714,220 z"
       transform="matrix(0.94976809,0,0,0.82815148,194.07276,670.1628)"
       clip-path="url(#clipPath3878-0)" />
    <text
       xml:space="preserve"
       style="font-size:40px;font-style:normal;font-variant:normal;font-weight:bold;font-stretch:normal;line-height:125%;letter-spacing:0px;word-spacing:0px;fill:#0000ff;fill-opacity:1;stroke:none;font-family:Courier 10 Pitch;-inkscape-font-specification:Courier 10 Pitch Bold"
       x="7.0580001"
       y="874.93414"
       id="text2985"
       sodipodi:linespacing="125%"
       inkscape:export-filename="/home/thomas/ml-bourne.png"
       inkscape:export-xdpi="90"
       inkscape:export-ydpi="90"><tspan
         sodipodi:role="line"
         id="tspan2987"
         x="7.0580001"
         y="874.93414"
         style="font-size:72px;font-style:normal;font-variant:normal;font-weight:bold;font-stretch:normal;fill:#0000ff;stroke:#000000;stroke-width:2;stroke-miterlimit:4;stroke-dasharray:none;font-family:Courier 10 Pitch;-inkscape-font-specification:Courier 10 Pitch Bold">ml-bourne</tspan></text>
  </g>
</svg>
